<svg id="Layer_1" data-name="Layer 1" xmlns="http://www.w3.org/2000/svg" viewBox="0 0 96.67 77.45"><defs><style>.cls-1{fill:#852829;}.cls-2{fill:#231f20;}</style></defs><path class="cls-1" d="M48.06,18.55a6.48,6.48,0,0,0,3.86-5.09,10.82,10.82,0,0,1,4.6-7.1C60.47,3.91,65.61,2.55,67.29,0c0,0-.29,2.22-1.29,2.88,0,0,4-1.81,4.94-3.86,0,0-.89,3.53-3.34,4.79,0,0,4.75-2,5.53-4a5.91,5.91,0,0,1-3.3,4.75s3.75-.93,4-2a6,6,0,0,1-4.31,3.72s3.45-.41,4.08-1.3a5.88,5.88,0,0,1-3.75,2.93c-2.56.52.08,1.74,2.08,0a3.87,3.87,0,0,1-2.71,1.89c-1.89.3-.33.78.26.52a2.25,2.25,0,0,1-1.15.74c-.59.08-1.11.67.3.6,0,0-1.23.78-1.86.63s-1.11.85.56.55a5.85,5.85,0,0,1-3.27.9c-1.6-.19-3.23,3.19-4,5.23s-3.31,6.68-6.8,5.75c0,0,1.71,5,4.2,6.28s3.42,2.89,2.67,3.3-.81-.33-1.26.6-.78-.52-1.56.7c0,0-1.15-.11-1.45.41s-1.15-.78-1.89,0-.78-1.08-1.49-.67-.85-.81-1.59-.7-.6-1.45-1.38-1.23-1-.85-.18-1.33,1.3-2.23.56-2c0,0-2.08,3.38-3.42,3.23s-.52,1.71,0,1.63S48,36,47.33,36.59c0,0-.19-.63-.45-.63a1.56,1.56,0,0,1-1.3-.55s-1.67-.26-2.08,1.18c0,0-.55-.11-.33-1,0,0-.56.17-.63.51a.79.79,0,0,1-.24-1s-.56.25-.56.66c0,0-1.53-1.16,2-1.77l-.21-.46a4,4,0,0,1-1.12-.48c-.58-.37-1.47-.76-1.81-.13,0,0-.42-.31,0-.92,0,0-.66-.07-.88.34,0,0-.26-.75.32-1,0,0-.73-.14-1,.15,0,0,.22-1.77,3.1.17,0,0,.87.09.9-1.31s1.57-3,1.55-4,0-3.12-2.21-3a5.4,5.4,0,0,0-3.19.87s-.08-.56,0-.58a1.57,1.57,0,0,0-.68,1.06s-1.23-1.42,0-2.3c0,0-.72-1.6,1.62-2.25,0,0,3.56-.45,1.8-2.68a17.3,17.3,0,0,0-6.2-4.92,19.65,19.65,0,0,1-4.07-1.84l1-.08a11.57,11.57,0,0,1-2-1.67,8.31,8.31,0,0,0,1.09.25S30,7.75,29.7,6.74a5,5,0,0,0,1.43.72S28.3,4.85,29.44,1.31c0,0,.24,2.33.8,2.28,0,0-.75-3.56.34-4.57,0,0,.07,2.85.77,3,0,0-.41-3.2.8-4,0,0-.87,5,2.35,6.34V3.42s.58,1.4,1.26,1.55c0,0,6.54,3.75,8.35,7.41S46.46,17.64,48.06,18.55Z" transform="translate(-1.36 2)"/><path class="cls-2" d="M10.65,40.48a4.13,4.13,0,0,0-1.42-1.23,4.22,4.22,0,0,0-2.09-.47A4.4,4.4,0,0,0,5.87,39a3.58,3.58,0,0,0-1.17.59,2.94,2.94,0,0,0-.86,1A3,3,0,0,0,3.52,42a2.58,2.58,0,0,0,.31,1.34,2.75,2.75,0,0,0,.83.9,4.65,4.65,0,0,0,1.17.62l1.38.48c.59.19,1.18.4,1.78.62a6.32,6.32,0,0,1,1.62.88,4.42,4.42,0,0,1,1.17,1.36,4.41,4.41,0,0,1,.45,2.1A4.47,4.47,0,0,1,10.49,54a5.27,5.27,0,0,1-1.77.89A7.23,7.23,0,0,1,5.18,55a7.19,7.19,0,0,1-1.47-.46,6.16,6.16,0,0,1-1.29-.8,5.53,5.53,0,0,1-1.06-1.1l1.49-1.1A4.61,4.61,0,0,0,4.4,53.07a4.34,4.34,0,0,0,2.34.61,4.75,4.75,0,0,0,1.32-.2,3.88,3.88,0,0,0,1.21-.63,3.55,3.55,0,0,0,.89-1,3.18,3.18,0,0,0,0-2.9,3.25,3.25,0,0,0-.93-1,5.81,5.81,0,0,0-1.32-.66c-.49-.17-1-.35-1.56-.52s-1.11-.38-1.65-.6a5.68,5.68,0,0,1-1.47-.88,4,4,0,0,1-1-1.33,4.41,4.41,0,0,1,1.38-5.52,5.15,5.15,0,0,1,1.75-.84,7,7,0,0,1,1.9-.27,6.52,6.52,0,0,1,3,.62A5,5,0,0,1,12,39.38Z" transform="translate(-1.36 2)"/><path class="cls-2" d="M26.08,48.79v.36c0,.12,0,.26,0,.4H16.74a4.48,4.48,0,0,0,.34,1.59A4,4,0,0,0,18,52.43a4,4,0,0,0,1.29.88,3.92,3.92,0,0,0,1.61.32,4,4,0,0,0,2.2-.58,4.56,4.56,0,0,0,1.4-1.36l1.22,1a6,6,0,0,1-2.22,1.82,6.16,6.16,0,0,1-2.6.56,5.92,5.92,0,0,1-2.32-.45,5.41,5.41,0,0,1-1.83-1.23,5.68,5.68,0,0,1-1.21-1.88A6,6,0,0,1,15,49.12a6.22,6.22,0,0,1,.43-2.35,5.77,5.77,0,0,1,1.2-1.87,5.52,5.52,0,0,1,1.8-1.24,5.69,5.69,0,0,1,2.23-.44,5.83,5.83,0,0,1,2.33.44,4.94,4.94,0,0,1,1.68,1.2,5.1,5.1,0,0,1,1,1.77A6.61,6.61,0,0,1,26.08,48.79Zm-1.65-.53a4.08,4.08,0,0,0-1-2.63,3.48,3.48,0,0,0-2.71-1,3.8,3.8,0,0,0-1.51.3A4.06,4.06,0,0,0,18,45.7a4.24,4.24,0,0,0-.84,1.18,3.71,3.71,0,0,0-.36,1.38Z" transform="translate(-1.36 2)"/><path class="cls-2" d="M31.26,54.74H29.63V36.59h1.63Z" transform="translate(-1.36 2)"/><path class="cls-2" d="M40.38,44.87H37.74v9.87H36.11V44.87H33.76V43.51h2.35V40.43a4.49,4.49,0,0,1,.94-3,3.54,3.54,0,0,1,2.88-1.1l.67,0a4.42,4.42,0,0,1,.67.13L41,37.91l-.52-.12a3.7,3.7,0,0,0-.6,0,2.37,2.37,0,0,0-1.07.21,1.6,1.6,0,0,0-.65.61,2.69,2.69,0,0,0-.31.93,6.72,6.72,0,0,0-.09,1.13v2.88h2.64Z" transform="translate(-1.36 2)"/><path class="cls-2" d="M49.38,37.75h1.73v7.36h9.27V37.75H62.1v17H60.38v-8H51.11v8H49.38Z" transform="translate(-1.36 2)"/><path class="cls-2" d="M76.74,48.79v.36a2.82,2.82,0,0,1,0,.4H67.41a4.47,4.47,0,0,0,.33,1.59,4,4,0,0,0,.87,1.29,4.16,4.16,0,0,0,1.29.88,4,4,0,0,0,1.61.32,4,4,0,0,0,2.2-.58,4.56,4.56,0,0,0,1.4-1.36l1.23,1a6.1,6.1,0,0,1-2.22,1.82,6.21,6.21,0,0,1-2.61.56,5.87,5.87,0,0,1-2.31-.45,5.36,5.36,0,0,1-1.84-1.23,5.84,5.84,0,0,1-1.21-1.88,6,6,0,0,1-.45-2.35,6.22,6.22,0,0,1,.44-2.35,5.46,5.46,0,0,1,1.2-1.87,5.52,5.52,0,0,1,1.8-1.24,5.65,5.65,0,0,1,2.23-.44,5.87,5.87,0,0,1,2.33.44,4.94,4.94,0,0,1,1.68,1.2,5.44,5.44,0,0,1,1,1.77A6.61,6.61,0,0,1,76.74,48.79Zm-1.65-.53a4.08,4.08,0,0,0-1-2.63,3.45,3.45,0,0,0-2.7-1,3.73,3.73,0,0,0-1.51.3,4,4,0,0,0-1.23.81,4.24,4.24,0,0,0-.84,1.18,3.71,3.71,0,0,0-.36,1.38Z" transform="translate(-1.36 2)"/><path class="cls-2" d="M81.93,54.74H80.3V36.59h1.63Z" transform="translate(-1.36 2)"/><path class="cls-2" d="M87.93,60.5H86.3v-17h1.63v1.94H88a4.41,4.41,0,0,1,1.86-1.67,5.44,5.44,0,0,1,2.36-.56,6.1,6.1,0,0,1,2.39.45,5.47,5.47,0,0,1,1.82,1.25,5.56,5.56,0,0,1,1.18,1.87,6.67,6.67,0,0,1,0,4.66,5.56,5.56,0,0,1-1.18,1.87,5.32,5.32,0,0,1-1.82,1.25,6.1,6.1,0,0,1-2.39.46,5.32,5.32,0,0,1-2.36-.57A4.43,4.43,0,0,1,88,52.84h-.07ZM96.3,49.12A5.12,5.12,0,0,0,96,47.36a4.26,4.26,0,0,0-.82-1.44,3.89,3.89,0,0,0-1.34-1,4.6,4.6,0,0,0-3.52,0,4.34,4.34,0,0,0-1.37,1,4.28,4.28,0,0,0-.9,1.44,5,5,0,0,0,0,3.58,4.14,4.14,0,0,0,.9,1.43,4.31,4.31,0,0,0,1.37.95,4.23,4.23,0,0,0,1.72.34,4.41,4.41,0,0,0,1.8-.34,4,4,0,0,0,1.34-1A4.26,4.26,0,0,0,96,50.89,5.18,5.18,0,0,0,96.3,49.12Z" transform="translate(-1.36 2)"/><path class="cls-2" d="M7.63,73.06h0l4-10h1.87v12H12.32V64.68h0L7.94,75.14H7.29L2.94,64.68h0V75.14H1.68v-12H3.55Z" transform="translate(-1.36 2)"/><path class="cls-2" d="M28.64,69.12a6.51,6.51,0,0,1-.47,2.53A6,6,0,0,1,24.86,75a6.35,6.35,0,0,1-2.49.47A6.42,6.42,0,0,1,19.88,75a6.18,6.18,0,0,1-2-1.32,6.12,6.12,0,0,1-1.32-2,7,7,0,0,1,0-5.06,6.12,6.12,0,0,1,1.32-2,6.18,6.18,0,0,1,2-1.32,6.42,6.42,0,0,1,2.49-.47,6.35,6.35,0,0,1,2.49.47,6,6,0,0,1,3.31,3.32A6.51,6.51,0,0,1,28.64,69.12Zm-1.29,0a5.8,5.8,0,0,0-.34-2,5,5,0,0,0-1-1.68,4.68,4.68,0,0,0-1.58-1.14,5.25,5.25,0,0,0-4.16,0,4.64,4.64,0,0,0-1.57,1.14,5.15,5.15,0,0,0-1,1.68,6.05,6.05,0,0,0,0,4,4.86,4.86,0,0,0,1,1.66,4.64,4.64,0,0,0,1.57,1.14,5.25,5.25,0,0,0,4.16,0A4.73,4.73,0,0,0,27,71.13,5.8,5.8,0,0,0,27.35,69.13Z" transform="translate(-1.36 2)"/><path class="cls-2" d="M34.68,73.56h0L38.62,63.1h1.31l-4.61,12H34l-4.59-12h1.33Z" transform="translate(-1.36 2)"/><path class="cls-2" d="M42.8,74.05h6.45v1.09H41.58v-12H49v1.09H42.8v4.13h5.84v1.09H42.8Z" transform="translate(-1.36 2)"/><path class="cls-2" d="M57.59,73.06h0l4-10h1.87v12H62.29V64.68h0L57.9,75.14h-.65L52.9,64.68h0V75.14H51.64v-12h1.87Z" transform="translate(-1.36 2)"/><path class="cls-2" d="M67.93,74.05h6.44v1.09H66.71v-12h7.46v1.09H67.93v4.13h5.83v1.09H67.93Z" transform="translate(-1.36 2)"/><path class="cls-2" d="M85.3,73.35h0V63.1h1.22v12H85L78,64.79h0V75.14H76.77v-12H78.3Z" transform="translate(-1.36 2)"/><path class="cls-2" d="M93.62,75.14H92.39v-11h-4V63.1h9.29v1.09h-4Z" transform="translate(-1.36 2)"/></svg>